<mxfile host="app.diagrams.net" modified="2021-06-03T13:42:30.131Z" agent="5.0 (Windows NT 10.0; Win64; x64) AppleWebKit/537.36 (KHTML, like Gecko) Chrome/90.0.4430.85 Safari/537.36" etag="YCBARIPxGEBgaa99yfI_" version="14.6.6" type="github">
  <diagram id="DeSyd2PaTH0ix3qHd-5F" name="第 1 页">
    <mxGraphModel dx="870" dy="539" grid="1" gridSize="10" guides="1" tooltips="1" connect="1" arrows="1" fold="1" page="1" pageScale="1" pageWidth="827" pageHeight="1169" math="0" shadow="0">
      <root>
        <mxCell id="0" />
        <mxCell id="1" parent="0" />
        <mxCell id="yNZfFnziBloxg7nEjzWF-7" style="edgeStyle=orthogonalEdgeStyle;rounded=0;orthogonalLoop=1;jettySize=auto;html=1;exitX=1;exitY=0.5;exitDx=0;exitDy=0;strokeWidth=2;" edge="1" parent="1" source="yNZfFnziBloxg7nEjzWF-1" target="yNZfFnziBloxg7nEjzWF-6">
          <mxGeometry relative="1" as="geometry" />
        </mxCell>
        <mxCell id="yNZfFnziBloxg7nEjzWF-1" value="&lt;font style=&quot;font-size: 16px&quot;&gt;挑战&lt;/font&gt;" style="rounded=1;whiteSpace=wrap;html=1;fillColor=#f8cecc;strokeColor=#b85450;" vertex="1" parent="1">
          <mxGeometry x="200" y="80" width="120" height="60" as="geometry" />
        </mxCell>
        <mxCell id="yNZfFnziBloxg7nEjzWF-16" style="edgeStyle=orthogonalEdgeStyle;rounded=0;orthogonalLoop=1;jettySize=auto;html=1;exitX=1;exitY=0.5;exitDx=0;exitDy=0;entryX=0;entryY=0.5;entryDx=0;entryDy=0;strokeWidth=2;" edge="1" parent="1" source="yNZfFnziBloxg7nEjzWF-2" target="yNZfFnziBloxg7nEjzWF-12">
          <mxGeometry relative="1" as="geometry" />
        </mxCell>
        <mxCell id="yNZfFnziBloxg7nEjzWF-2" value="&lt;font style=&quot;font-size: 16px&quot;&gt;阻碍&lt;/font&gt;" style="rounded=1;whiteSpace=wrap;html=1;fillColor=#f8cecc;strokeColor=#b85450;" vertex="1" parent="1">
          <mxGeometry x="200" y="170" width="120" height="60" as="geometry" />
        </mxCell>
        <mxCell id="yNZfFnziBloxg7nEjzWF-17" style="edgeStyle=orthogonalEdgeStyle;rounded=0;orthogonalLoop=1;jettySize=auto;html=1;exitX=1;exitY=0.5;exitDx=0;exitDy=0;entryX=0;entryY=0.5;entryDx=0;entryDy=0;strokeWidth=2;" edge="1" parent="1" source="yNZfFnziBloxg7nEjzWF-3" target="yNZfFnziBloxg7nEjzWF-13">
          <mxGeometry relative="1" as="geometry" />
        </mxCell>
        <mxCell id="yNZfFnziBloxg7nEjzWF-3" value="&lt;font style=&quot;font-size: 16px&quot;&gt;努力&lt;/font&gt;" style="rounded=1;whiteSpace=wrap;html=1;fillColor=#f8cecc;strokeColor=#b85450;" vertex="1" parent="1">
          <mxGeometry x="200" y="260" width="120" height="60" as="geometry" />
        </mxCell>
        <mxCell id="yNZfFnziBloxg7nEjzWF-18" style="edgeStyle=orthogonalEdgeStyle;rounded=0;orthogonalLoop=1;jettySize=auto;html=1;exitX=1;exitY=0.5;exitDx=0;exitDy=0;entryX=0;entryY=0.5;entryDx=0;entryDy=0;strokeWidth=2;" edge="1" parent="1" source="yNZfFnziBloxg7nEjzWF-4" target="yNZfFnziBloxg7nEjzWF-14">
          <mxGeometry relative="1" as="geometry" />
        </mxCell>
        <mxCell id="yNZfFnziBloxg7nEjzWF-4" value="&lt;font style=&quot;font-size: 16px&quot;&gt;批评&lt;/font&gt;" style="rounded=1;whiteSpace=wrap;html=1;fillColor=#f8cecc;strokeColor=#b85450;" vertex="1" parent="1">
          <mxGeometry x="200" y="350" width="120" height="60" as="geometry" />
        </mxCell>
        <mxCell id="yNZfFnziBloxg7nEjzWF-19" style="edgeStyle=orthogonalEdgeStyle;rounded=0;orthogonalLoop=1;jettySize=auto;html=1;exitX=1;exitY=0.5;exitDx=0;exitDy=0;entryX=0;entryY=0.5;entryDx=0;entryDy=0;strokeWidth=2;" edge="1" parent="1" source="yNZfFnziBloxg7nEjzWF-5" target="yNZfFnziBloxg7nEjzWF-15">
          <mxGeometry relative="1" as="geometry" />
        </mxCell>
        <mxCell id="yNZfFnziBloxg7nEjzWF-5" value="&lt;font style=&quot;font-size: 16px&quot;&gt;别人成功&lt;/font&gt;" style="rounded=1;whiteSpace=wrap;html=1;fillColor=#f8cecc;strokeColor=#b85450;" vertex="1" parent="1">
          <mxGeometry x="200" y="440" width="120" height="60" as="geometry" />
        </mxCell>
        <mxCell id="yNZfFnziBloxg7nEjzWF-11" style="edgeStyle=orthogonalEdgeStyle;rounded=0;orthogonalLoop=1;jettySize=auto;html=1;exitX=1;exitY=0.5;exitDx=0;exitDy=0;entryX=0;entryY=0.5;entryDx=0;entryDy=0;strokeWidth=2;" edge="1" parent="1" source="yNZfFnziBloxg7nEjzWF-6" target="yNZfFnziBloxg7nEjzWF-8">
          <mxGeometry relative="1" as="geometry" />
        </mxCell>
        <mxCell id="yNZfFnziBloxg7nEjzWF-6" value="" style="ellipse;whiteSpace=wrap;html=1;aspect=fixed;fillColor=#d5e8d4;strokeColor=#82b366;" vertex="1" parent="1">
          <mxGeometry x="389" y="85" width="50" height="50" as="geometry" />
        </mxCell>
        <mxCell id="yNZfFnziBloxg7nEjzWF-8" value="&lt;font style=&quot;font-size: 16px&quot;&gt;兴奋&lt;/font&gt;" style="rounded=1;whiteSpace=wrap;html=1;fillColor=#ffe6cc;strokeColor=#d79b00;" vertex="1" parent="1">
          <mxGeometry x="510" y="80" width="120" height="60" as="geometry" />
        </mxCell>
        <mxCell id="yNZfFnziBloxg7nEjzWF-24" style="edgeStyle=orthogonalEdgeStyle;rounded=0;orthogonalLoop=1;jettySize=auto;html=1;exitX=1;exitY=0.5;exitDx=0;exitDy=0;strokeWidth=2;" edge="1" parent="1" source="yNZfFnziBloxg7nEjzWF-12" target="yNZfFnziBloxg7nEjzWF-20">
          <mxGeometry relative="1" as="geometry" />
        </mxCell>
        <mxCell id="yNZfFnziBloxg7nEjzWF-12" value="" style="ellipse;whiteSpace=wrap;html=1;aspect=fixed;fillColor=#d5e8d4;strokeColor=#82b366;" vertex="1" parent="1">
          <mxGeometry x="389" y="175" width="50" height="50" as="geometry" />
        </mxCell>
        <mxCell id="yNZfFnziBloxg7nEjzWF-25" style="edgeStyle=orthogonalEdgeStyle;rounded=0;orthogonalLoop=1;jettySize=auto;html=1;exitX=1;exitY=0.5;exitDx=0;exitDy=0;strokeWidth=2;" edge="1" parent="1" source="yNZfFnziBloxg7nEjzWF-13" target="yNZfFnziBloxg7nEjzWF-21">
          <mxGeometry relative="1" as="geometry" />
        </mxCell>
        <mxCell id="yNZfFnziBloxg7nEjzWF-13" value="" style="ellipse;whiteSpace=wrap;html=1;aspect=fixed;fillColor=#d5e8d4;strokeColor=#82b366;" vertex="1" parent="1">
          <mxGeometry x="389" y="265" width="50" height="50" as="geometry" />
        </mxCell>
        <mxCell id="yNZfFnziBloxg7nEjzWF-26" style="edgeStyle=orthogonalEdgeStyle;rounded=0;orthogonalLoop=1;jettySize=auto;html=1;exitX=1;exitY=0.5;exitDx=0;exitDy=0;strokeWidth=2;" edge="1" parent="1" source="yNZfFnziBloxg7nEjzWF-14" target="yNZfFnziBloxg7nEjzWF-22">
          <mxGeometry relative="1" as="geometry" />
        </mxCell>
        <mxCell id="yNZfFnziBloxg7nEjzWF-14" value="" style="ellipse;whiteSpace=wrap;html=1;aspect=fixed;fillColor=#d5e8d4;strokeColor=#82b366;" vertex="1" parent="1">
          <mxGeometry x="389" y="355" width="50" height="50" as="geometry" />
        </mxCell>
        <mxCell id="yNZfFnziBloxg7nEjzWF-27" style="edgeStyle=orthogonalEdgeStyle;rounded=0;orthogonalLoop=1;jettySize=auto;html=1;exitX=1;exitY=0.5;exitDx=0;exitDy=0;entryX=0;entryY=0.5;entryDx=0;entryDy=0;strokeWidth=2;" edge="1" parent="1" source="yNZfFnziBloxg7nEjzWF-15" target="yNZfFnziBloxg7nEjzWF-23">
          <mxGeometry relative="1" as="geometry" />
        </mxCell>
        <mxCell id="yNZfFnziBloxg7nEjzWF-15" value="" style="ellipse;whiteSpace=wrap;html=1;aspect=fixed;fillColor=#d5e8d4;strokeColor=#82b366;" vertex="1" parent="1">
          <mxGeometry x="389" y="445" width="50" height="50" as="geometry" />
        </mxCell>
        <mxCell id="yNZfFnziBloxg7nEjzWF-20" value="&lt;font style=&quot;font-size: 16px&quot;&gt;多试点办法，想如何解决它&lt;/font&gt;" style="rounded=1;whiteSpace=wrap;html=1;fillColor=#ffe6cc;strokeColor=#d79b00;" vertex="1" parent="1">
          <mxGeometry x="510" y="170" width="120" height="60" as="geometry" />
        </mxCell>
        <mxCell id="yNZfFnziBloxg7nEjzWF-21" value="&lt;font style=&quot;font-size: 16px&quot;&gt;相信花更多时间将事情能做好&lt;/font&gt;" style="rounded=1;whiteSpace=wrap;html=1;fillColor=#ffe6cc;strokeColor=#d79b00;" vertex="1" parent="1">
          <mxGeometry x="510" y="260" width="120" height="60" as="geometry" />
        </mxCell>
        <mxCell id="yNZfFnziBloxg7nEjzWF-22" value="&lt;font style=&quot;font-size: 16px&quot;&gt;听听有没有道理&lt;/font&gt;" style="rounded=1;whiteSpace=wrap;html=1;fillColor=#ffe6cc;strokeColor=#d79b00;" vertex="1" parent="1">
          <mxGeometry x="510" y="350" width="120" height="60" as="geometry" />
        </mxCell>
        <mxCell id="yNZfFnziBloxg7nEjzWF-23" value="&lt;font style=&quot;font-size: 16px&quot;&gt;从别人成功案例中找找经验&lt;/font&gt;" style="rounded=1;whiteSpace=wrap;html=1;fillColor=#ffe6cc;strokeColor=#d79b00;" vertex="1" parent="1">
          <mxGeometry x="510" y="440" width="120" height="60" as="geometry" />
        </mxCell>
      </root>
    </mxGraphModel>
  </diagram>
</mxfile>
